# xmcd CD database file
#
# Track frame offsets:
#	182
#	18397
#	42345
#	60772
#	73202
#	89815
#	116735
#	140405
#	162345
#
# Disc length: 2405 seconds
#
# Revision: 0
# Processed by: cddbd v1.4PL0 Copyright (c) Steve Scherf et al.
# Submitted via: CDex 1.50
#
DISCID=7d096309
DTITLE=Bobbi Humphrey - City Beat
DYEAR=1988
DGENRE=Jazz
TTITLE0=City Beat
TTITLE1=Loop 12
TTITLE2=Tropical Voyage
TTITLE3=Come Get To This
TTITLE4=King Of Hearts
TTITLE5=Hello
TTITLE6=Days Of You And Me
TTITLE7=What The Heart Needs
TTITLE8=City Beat Instrumental
EXTD=YEAR: 1988
EXTT0=
EXTT1=
EXTT2=
EXTT3=
EXTT4=
EXTT5=
EXTT6=
EXTT7=
EXTT8=
PLAYORDER=
